<svg width="146" height="32" viewBox="0 0 146 32" fill="none" xmlns="http://www.w3.org/2000/svg">
<path fill-rule="evenodd" clip-rule="evenodd" d="M4.61869 27.38C6.57335 29.3334 9.71469 29.3334 16 29.3334C22.2854 29.3334 25.428 29.3334 27.38 27.38C29.3334 25.4294 29.3334 22.2854 29.3334 16C29.3334 9.71469 29.3334 6.57202 27.38 4.61869C25.4294 2.66669 22.2854 2.66669 16 2.66669C9.71469 2.66669 6.57202 2.66669 4.61869 4.61869C2.66669 6.57335 2.66669 9.71469 2.66669 16C2.66669 22.2854 2.66669 25.428 4.61869 27.38ZM12.6667 11.6667C11.8096 11.6667 10.9718 11.9208 10.2592 12.397C9.5466 12.8731 8.99119 13.5499 8.66321 14.3417C8.33523 15.1335 8.24941 16.0048 8.41662 16.8454C8.58382 17.686 8.99653 18.4581 9.60256 19.0641C10.2086 19.6702 10.9807 20.0829 11.8213 20.2501C12.6619 20.4173 13.5332 20.3315 14.325 20.0035C15.1168 19.6755 15.7936 19.1201 16.2697 18.4075C16.7459 17.6949 17 16.8571 17 16C17 15.7348 17.1054 15.4804 17.2929 15.2929C17.4804 15.1054 17.7348 15 18 15C18.2652 15 18.5196 15.1054 18.7071 15.2929C18.8947 15.4804 19 15.7348 19 16C19 17.2526 18.6286 18.4771 17.9327 19.5186C17.2367 20.5601 16.2476 21.3719 15.0903 21.8513C13.9331 22.3306 12.6597 22.456 11.4311 22.2117C10.2026 21.9673 9.07408 21.3641 8.18834 20.4784C7.30261 19.5926 6.69942 18.4641 6.45505 17.2356C6.21067 16.007 6.33609 14.7336 6.81545 13.5764C7.2948 12.4191 8.10656 11.43 9.14808 10.734C10.1896 10.0381 11.4141 9.66669 12.6667 9.66669C12.9319 9.66669 13.1863 9.77204 13.3738 9.95958C13.5613 10.1471 13.6667 10.4015 13.6667 10.6667C13.6667 10.9319 13.5613 11.1863 13.3738 11.3738C13.1863 11.5613 12.9319 11.6667 12.6667 11.6667ZM23.6667 16C23.6667 17.1493 23.2101 18.2515 22.3975 19.0641C21.5848 19.8768 20.4826 20.3334 19.3334 20.3334C19.0681 20.3334 18.8138 20.4387 18.6262 20.6262C18.4387 20.8138 18.3334 21.0681 18.3334 21.3334C18.3334 21.5986 18.4387 21.8529 18.6262 22.0405C18.8138 22.228 19.0681 22.3334 19.3334 22.3334C20.586 22.3334 21.8105 21.9619 22.852 21.266C23.8935 20.5701 24.7052 19.5809 25.1846 18.4237C25.6639 17.2664 25.7894 15.993 25.545 14.7644C25.3006 13.5359 24.6974 12.4074 23.8117 11.5217C22.926 10.6359 21.7975 10.0328 20.5689 9.78838C19.3404 9.54401 18.067 9.66943 16.9097 10.1488C15.7524 10.6281 14.7633 11.4399 14.0674 12.4814C13.3715 13.5229 13 14.7474 13 16C13 16.2652 13.1054 16.5196 13.2929 16.7071C13.4804 16.8947 13.7348 17 14 17C14.2652 17 14.5196 16.8947 14.7071 16.7071C14.8947 16.5196 15 16.2652 15 16C15 14.8507 15.4566 13.7485 16.2692 12.9359C17.0819 12.1232 18.1841 11.6667 19.3334 11.6667C20.4826 11.6667 21.5848 12.1232 22.3975 12.9359C23.2101 13.7485 23.6667 14.8507 23.6667 16Z" fill="#633CFF"/>
<path d="M48.9977 25.72V22.556L49.2748 22.612C49.0901 23.6387 48.536 24.46 47.6126 25.076C46.7077 25.692 45.6181 26 44.3438 26C43.051 26 41.9245 25.7013 40.9641 25.104C40.0223 24.488 39.2928 23.6293 38.7757 22.528C38.2586 21.4267 38 20.1293 38 18.636C38 17.124 38.2678 15.808 38.8034 14.688C39.3389 13.568 40.0869 12.7 41.0472 12.084C42.026 11.468 43.1618 11.16 44.4546 11.16C45.8028 11.16 46.8924 11.4773 47.7234 12.112C48.573 12.7467 49.0716 13.6147 49.2194 14.716L48.9146 14.744V5.56H53.07V25.72H48.9977ZM45.6735 22.64C46.6523 22.64 47.4464 22.2947 48.0559 21.604C48.6653 20.8947 48.97 19.8867 48.97 18.58C48.97 17.2733 48.6561 16.2747 48.0282 15.584C47.4187 14.8747 46.6154 14.52 45.6181 14.52C44.6577 14.52 43.8636 14.8747 43.2357 15.584C42.6263 16.2933 42.3215 17.3013 42.3215 18.608C42.3215 19.9147 42.6263 20.9133 43.2357 21.604C43.8636 22.2947 44.6762 22.64 45.6735 22.64Z" fill="#333333"/>
<path d="M63.0408 26C61.471 26 60.1044 25.692 58.9409 25.076C57.7774 24.4413 56.8724 23.564 56.2261 22.444C55.5981 21.324 55.2842 20.036 55.2842 18.58C55.2842 17.1053 55.5981 15.8173 56.2261 14.716C56.8724 13.596 57.7681 12.728 58.9132 12.112C60.0582 11.4773 61.3879 11.16 62.9023 11.16C64.3612 11.16 65.6263 11.4587 66.6975 12.056C67.7686 12.6533 68.5997 13.484 69.1907 14.548C69.7816 15.612 70.0771 16.8627 70.0771 18.3C70.0771 18.5987 70.0679 18.8787 70.0494 19.14C70.0309 19.3827 70.0032 19.616 69.9663 19.84H57.722V17.068H66.6144L65.8941 17.572C65.8941 16.4147 65.6171 15.5653 65.063 15.024C64.5275 14.464 63.7887 14.184 62.8469 14.184C61.7572 14.184 60.9077 14.5573 60.2983 15.304C59.7073 16.0507 59.4118 17.1707 59.4118 18.664C59.4118 20.12 59.7073 21.2027 60.2983 21.912C60.9077 22.6213 61.8127 22.976 63.0131 22.976C63.6779 22.976 64.2504 22.864 64.7306 22.64C65.2108 22.416 65.5709 22.052 65.811 21.548H69.717C69.2553 22.9293 68.4612 24.0213 67.3346 24.824C66.2265 25.608 64.7952 26 63.0408 26Z" fill="#333333"/>
<path d="M75.7441 25.72L70.176 11.44H74.6361L78.9853 24.768H76.6583L80.9799 11.44H85.3291L79.761 25.72H75.7441Z" fill="#333333"/>
<path d="M86.9349 25.72V5.56H91.0903V25.72H86.9349Z" fill="#333333"/>
<path d="M94.4015 25.72V11.44H98.5569V25.72H94.4015ZM94.263 9.536V5H98.6954V9.536H94.263Z" fill="#333333"/>
<path d="M101.868 25.72V11.44H105.94V14.8H106.023V25.72H101.868ZM111.702 25.72V16.872C111.702 16.088 111.499 15.5 111.093 15.108C110.705 14.716 110.133 14.52 109.375 14.52C108.729 14.52 108.147 14.6693 107.63 14.968C107.132 15.2667 106.734 15.6773 106.439 16.2C106.162 16.7227 106.023 17.3387 106.023 18.048L105.663 14.604C106.125 13.5587 106.799 12.728 107.686 12.112C108.591 11.4773 109.699 11.16 111.01 11.16C112.58 11.16 113.78 11.608 114.611 12.504C115.442 13.3813 115.858 14.5667 115.858 16.06V25.72H111.702Z" fill="#333333"/>
<path d="M119.02 25.72V5.56H123.175V25.72H119.02ZM128.078 25.72L122.205 18.3L127.94 11.44H132.732L126.001 18.944L126.194 17.628L133.009 25.72H128.078Z" fill="#333333"/>
<path d="M139.795 26C137.726 26 136.083 25.58 134.864 24.74C133.645 23.9 132.98 22.7427 132.869 21.268H136.581C136.674 21.9027 136.988 22.388 137.523 22.724C138.077 23.0413 138.834 23.2 139.795 23.2C140.663 23.2 141.291 23.0787 141.678 22.836C142.085 22.5747 142.288 22.2107 142.288 21.744C142.288 21.3893 142.168 21.1187 141.928 20.932C141.706 20.7267 141.291 20.5587 140.681 20.428L138.41 19.952C136.729 19.5973 135.492 19.0653 134.698 18.356C133.903 17.628 133.506 16.6947 133.506 15.556C133.506 14.1747 134.033 13.1013 135.085 12.336C136.138 11.552 137.606 11.16 139.49 11.16C141.355 11.16 142.842 11.5427 143.95 12.308C145.058 13.0547 145.668 14.1 145.778 15.444H142.066C141.992 14.9587 141.734 14.5947 141.291 14.352C140.847 14.0907 140.219 13.96 139.407 13.96C138.668 13.96 138.114 14.072 137.745 14.296C137.394 14.5013 137.218 14.8 137.218 15.192C137.218 15.528 137.366 15.7987 137.662 16.004C137.957 16.1907 138.447 16.3587 139.13 16.508L141.678 17.04C143.101 17.3387 144.172 17.8987 144.892 18.72C145.631 19.5227 146 20.4747 146 21.576C146 22.976 145.455 24.068 144.366 24.852C143.294 25.6173 141.771 26 139.795 26Z" fill="#333333"/>
</svg>
